<svg width="44" height="44" viewBox="0 0 44 44" fill="none" xmlns="http://www.w3.org/2000/svg">
<path d="M26.0333 5.271C23.7845 5.271 21.6278 6.16433 20.0376 7.75449C18.4475 9.34464 17.5541 11.5013 17.5541 13.7502V18.471H13.0166C12.7888 18.471 12.6041 18.6557 12.6041 18.8835V25.1168C12.6041 25.3446 12.7888 25.5293 13.0166 25.5293H17.5541V38.3168C17.5541 38.5446 17.7388 38.7293 17.9666 38.7293H24.2C24.4278 38.7293 24.6125 38.5446 24.6125 38.3168V25.5293H29.1901C29.3794 25.5293 29.5444 25.4005 29.5903 25.2169L31.1487 18.9835C31.2138 18.7232 31.0168 18.471 30.7485 18.471H24.6125V13.7502C24.6125 13.3733 24.7622 13.0119 25.0286 12.7455C25.2951 12.479 25.6565 12.3293 26.0333 12.3293H30.8C31.0278 12.3293 31.2125 12.1446 31.2125 11.9168V5.6835C31.2125 5.45568 31.0278 5.271 30.8 5.271H26.0333Z" fill="black"/>
</svg>
