<svg width="44" height="44" viewBox="0 0 44 44" fill="none" xmlns="http://www.w3.org/2000/svg">
<path d="M16.5 40.3332H27.5C36.6666 40.3332 40.3333 36.6665 40.3333 27.4998V16.4998C40.3333 7.33317 36.6666 3.6665 27.5 3.6665H16.5C7.33329 3.6665 3.66663 7.33317 3.66663 16.4998V27.4998C3.66663 36.6665 7.33329 40.3332 16.5 40.3332Z" stroke="black" stroke-width="1.5" stroke-linecap="round" stroke-linejoin="round"/>
<path d="M22 28.4168C25.5439 28.4168 28.4167 25.544 28.4167 22.0002C28.4167 18.4563 25.5439 15.5835 22 15.5835C18.4562 15.5835 15.5834 18.4563 15.5834 22.0002C15.5834 25.544 18.4562 28.4168 22 28.4168Z" stroke="black" stroke-width="1.5" stroke-linecap="round" stroke-linejoin="round"/>
<path d="M32.3328 12.8332H32.354" stroke="black" stroke-width="2" stroke-linecap="round" stroke-linejoin="round"/>
</svg>
