<svg width="38" height="28" viewBox="0 0 38 28" fill="none" xmlns="http://www.w3.org/2000/svg">
<path fill-rule="evenodd" clip-rule="evenodd" d="M9.81301 0.965763C15.9284 0.487323 22.0718 0.487324 28.1872 0.965764L32.2952 1.28715C34.5833 1.46616 36.4552 3.18105 36.8334 5.4448C37.7798 11.1089 37.7798 16.8907 36.8334 22.5548C36.4552 24.8186 34.5833 26.5335 32.2952 26.7125L28.1872 27.0339C22.0718 27.5123 15.9284 27.5123 9.81301 27.0339L5.70506 26.7125C3.41693 26.5335 1.54505 24.8186 1.16682 22.5548C0.220437 16.8907 0.220437 11.1089 1.16682 5.4448C1.54505 3.18105 3.41692 1.46616 5.70506 1.28715L9.81301 0.965763ZM15.3334 18.5284V9.47122C15.3334 9.04371 15.7998 8.77964 16.1664 8.9996L23.714 13.5282C24.0701 13.7418 24.0701 14.2578 23.714 14.4714L16.1664 19C15.7998 19.22 15.3334 18.9559 15.3334 18.5284Z" fill="black"/>
</svg>
